<svg width="27" height="11" viewBox="0 0 27 11" fill="none" xmlns="http://www.w3.org/2000/svg">
<path fill-rule="evenodd" clip-rule="evenodd" d="M9.999 7.55386C9.19758 7.55386 8.89586 6.97401 8.89586 5.20143C8.89586 3.42415 9.19758 2.84429 9.999 2.84429C10.8004 2.84429 11.0974 3.42415 11.0974 5.20143C11.0974 6.97401 10.8004 7.55386 9.999 7.55386ZM9.99429 5.96515C9.636 5.96515 9.44743 5.69172 9.44743 5.23443C9.44743 4.76772 9.636 4.50372 9.99429 4.50372C10.3573 4.50372 10.5459 4.76772 10.5459 5.23443C10.5459 5.69172 10.3573 5.96515 9.99429 5.96515Z" fill="white"/>
<path fill-rule="evenodd" clip-rule="evenodd" d="M26.7143 0H0V11H26.7143V0ZM14.1303 2.52372L13.7249 3.76358L15.4126 4.17843L14.2811 5.51258L15.3419 6.28101L16.28 4.77243L17.2181 6.28101L18.2789 5.51258L17.1474 4.17843L18.8351 3.76358L18.4297 2.52372L16.808 3.17901L16.94 1.43001H15.6247L15.7567 3.17901L14.1303 2.52372ZM9.999 8.76072C11.616 8.76072 12.5306 7.61044 12.5306 5.20143C12.5306 2.68401 11.616 1.63743 9.999 1.63743C8.37729 1.63743 7.46272 2.68401 7.46272 5.20143C7.46272 7.61044 8.37729 8.76072 9.999 8.76072ZM22.4997 1.65158C23.98 1.65158 24.8097 2.31629 24.8097 3.49486C24.8097 4.42829 24.2629 4.90443 23.6689 5.11186C24.3477 5.27686 24.9511 5.70115 24.9511 6.74772C24.9511 8.11958 23.914 8.75601 22.4997 8.75601C21.0241 8.75601 20.053 8.19029 20.0436 6.70529L21.307 6.57801C21.4154 7.26158 21.736 7.62929 22.4761 7.62929C23.3059 7.62929 23.5416 7.16258 23.5416 6.69586C23.5416 5.94629 22.9429 5.70115 21.9717 5.70115H21.8539V4.69701H21.9764C22.9429 4.69701 23.4803 4.30572 23.4803 3.63158C23.4803 3.06586 23.1314 2.74529 22.5186 2.74529C21.9246 2.74529 21.538 3.05172 21.4437 3.79658L20.218 3.66929C20.2086 2.29272 21.0241 1.65158 22.4997 1.65158ZM5.80643 3.32515L5.12758 2.39643L1.56358 4.97515V5.97458L5.12758 8.55329L5.80643 7.62458L2.87415 5.50315V5.44658L5.80643 3.32515Z" fill="white"/>
</svg>
