<svg width="20" height="15" viewBox="0 0 20 15" fill="none" xmlns="http://www.w3.org/2000/svg">
<path fill-rule="evenodd" clip-rule="evenodd" d="M20 0H0V15H20V0ZM13.6336 12C15.7838 12 17 10.5467 17 7.50298C17 4.3223 15.7838 3 13.6336 3C11.4771 3 10.2609 4.3223 10.2609 7.50298C10.2609 10.5467 11.4771 12 13.6336 12ZM13.6336 10.4752C12.5679 10.4752 12.1666 9.74255 12.1666 7.50298C12.1666 5.25745 12.5679 4.52482 13.6336 4.52482C14.6993 4.52482 15.0942 5.25745 15.0942 7.50298C15.0942 9.74255 14.6993 10.4752 13.6336 10.4752ZM13.6273 8.4679C13.1509 8.4679 12.9001 8.12244 12.9001 7.54467C12.9001 6.95499 13.1509 6.62144 13.6273 6.62144C14.11 6.62144 14.3608 6.95499 14.3608 7.54467C14.3608 8.12244 14.11 8.4679 13.6273 8.4679ZM8.64204 5.13236L7.73931 3.95897L3 7.21707V8.47981L7.73931 11.7379L8.64204 10.5645L4.74277 7.88419V7.81271L8.64204 5.13236Z" fill="#00FFD1"/>
</svg>
